<svg width="41" height="41" fill="none" xmlns="http://www.w3.org/2000/svg"><path fill-rule="evenodd" clip-rule="evenodd" d="M18.96.017c-3.08.36-5.01.883-7.37 1.996-.598.282-1.215.534-1.37.56-.388.062-2.641 1.18-2.858 1.417-.198.217-.346.563-.346.81 0 .105-.417.595-1.142 1.34-1.668 1.714-2.7 3.143-3.685 5.1C1.135 13.336.535 15.236.151 17.7c-.217 1.391-.197 4.39.04 5.856.356 2.209.92 3.985 1.9 5.986 1.982 4.049 5.349 7.417 9.374 9.38 2.032.99 3.832 1.558 6.011 1.896 1.445.224 4.319.245 5.692.042 3.934-.582 7.259-2.01 10.199-4.38 1.021-.824 2.712-2.567 3.473-3.582 2.604-3.469 3.986-7.41 4.136-11.792.044-1.289.034-1.48-.093-1.75-.217-.456-.578-.689-1.216-.785-1.555-.232-2.828-.86-3.848-1.899-.57-.578-.974-1.176-1.39-2.054-.532-1.12-1.094-1.423-2.333-1.26-.8.104-2.043.112-2.54.016-.26-.05-.434-.16-.704-.442-.486-.508-.96-.706-1.721-.72-.563-.01-.633-.032-1.002-.305-.47-.348-1.262-1.154-1.662-1.693-.426-.572-.994-1.773-1.184-2.502-.092-.353-.194-1.054-.227-1.556-.057-.863.18-2.76.18-2.76l-.606-.081-.25-.348s-.535 2.265-.535 2.977c0 1.731.626 3.576 1.712 5.045.234.315.765.895 1.18 1.288l.757.715-.221.44a2.17 2.17 0 00.205 2.278c.412.54.908.803 1.601.848.482.03.656.006 1-.142a2.27 2.27 0 001.294-1.565l.053-.24.999.027c.55.015 1.296-.016 1.66-.069.843-.124.952-.06 1.38.807.173.352.37.718.437.814.114.163.102.194-.197.519-.363.394-.411.7-.154.975.245.264.613.232.935-.08l.265-.258.3.286c1.148 1.092 2.623 1.832 4.141 2.077l.632.102-.051 1.33c-.168 4.341-1.596 8.188-4.279 11.523-.806 1.002-2.326 2.477-3.339 3.238-2.057 1.548-4.366 2.676-6.737 3.292-3.893 1.012-7.817.82-11.625-.569l-.695-.253.446-.451c.51-.517.58-.814.26-1.115-.336-.316-.571-.235-1.255.43l-.62.605-.753-.43c-1.794-1.022-2.979-1.922-4.368-3.319a19.248 19.248 0 01-5.441-16.273c.106-.758.19-1.2.403-2.116l.044-.191.22.211c.282.27.642.28.88.026.286-.305.225-.553-.265-1.083l-.44-.475.397-.98c.96-2.375 2.278-4.36 4.186-6.302l.946-.962.578.633c.589.644.913.85 1.335.85.338 0 2.911-1.293 3.077-1.546.39-.595.287-.999-.464-1.83-.33-.365-.599-.688-.599-.717 0-.12 1.707-.834 2.94-1.23 1.987-.64 3.588-.886 5.797-.89.904-.002 1.847.026 2.097.061l.453.066-.322.687c-.27.579-.25.936-.25.936l.25.348.606.08c.24-.56.875-1.528.88-2.082.007-.64-.423-1.066-1.195-1.187-.514-.08-3.504-.163-3.962-.109zm18.263.706c-.39.14-.703.394-.968.787-.574.85-.294 2.027.615 2.59.343.21.466.242.96.24.645-.004.929-.122 1.36-.566.298-.308.53-.866.53-1.277 0-1.241-1.335-2.19-2.497-1.774zm1.06 1.327c.141.141.234.319.234.447 0 .26-.396.682-.64.682-.387 0-.716-.305-.72-.668-.003-.295.388-.696.68-.696.127 0 .305.093.446.235zm-9.615.785c-.385.19-.511.44-1.06 2.1-.518 1.574-.536 1.739-.236 2.231.236.387.536.498 2.037.752 1.634.277 2.005.29 2.353.077.336-.205 2.14-2.469 2.262-2.837.184-.557-.15-1.268-.696-1.485-.449-.179-3.793-.975-4.086-.974a1.569 1.569 0 00-.574.136zM11.66 5.192c.002.027-.456.265-1.018.53l-1.022.483-.641-.682c-.353-.375-.648-.704-.656-.73-.008-.028.442-.272 1.002-.543l1.016-.493.658.694c.361.381.659.715.661.741zm19.345-.888c.89.221 1.68.429 1.754.46.11.05-.012.243-.7 1.102-.459.574-.89 1.055-.96 1.07-.105.023-2.687-.375-2.741-.423-.016-.013.666-2.106.818-2.512.02-.055.076-.1.123-.1s.815.181 1.706.403zm5.399 2.965c-.336.106-.505.283-1.026 1.073-.402.61-.468.763-.468 1.083 0 .226.06.472.154.625.142.233 1.767 1.604 2.456 2.072.535.364 1.333.219 1.676-.305.16-.245.844-1.93.927-2.284a1.341 1.341 0 00-.02-.558c-.138-.502-.484-.753-1.723-1.247-1.21-.483-1.608-.575-1.976-.459zM15.045 8.44c-.104.073-.364.493-.579.933-.367.751-.384.816-.287 1.053.116.287.404.424.721.344.17-.043.29-.21.613-.852.22-.44.4-.903.4-1.03 0-.42-.525-.69-.869-.448zm22.86.395c.557.22 1.013.436 1.013.48 0 .116-.674 1.805-.721 1.805-.037 0-1.875-1.449-2.036-1.605-.078-.076.574-1.144.674-1.104l1.07.424zM19.04 10.938a.57.57 0 00-.4.57c0 .235.075.356.468.749.373.373.52.469.721.469a.56.56 0 00.574-.585c0-.214-.085-.346-.46-.713-.464-.453-.68-.57-.903-.49zM8.806 12.246c-1.69.343-2.333 2.445-1.13 3.685.144.148.455.358.692.467.581.268 1.415.23 1.96-.09 1.25-.733 1.474-2.489.442-3.478-.497-.477-1.306-.717-1.964-.584zm.832 1.255c.979.465.644 1.872-.444 1.872-.554 0-1.075-.634-.946-1.15.07-.28.366-.62.645-.742.325-.141.41-.139.745.02zm18.139.096c.11.078.268.278.35.445.13.26.138.349.058.615-.247.825-1.365.969-1.8.231-.529-.895.544-1.891 1.391-1.291zm-9.379 1.243c-.154.058-.93.504-1.723.99-1.671 1.026-1.902 1.26-1.896 1.935.003.366.771 3.575.989 4.13.126.322.67.758 1.02.817.432.073.795-.079 2.22-.93 1.515-.906 1.993-1.326 2.075-1.821.07-.427-.298-1.625-.403-2.111-.104-.487-.16-.963-.36-1.485l-.752 1.898.177.727c.098.4.159.759.135.797-.023.037-.675.454-1.449.926-1.02.623-1.43.834-1.495.77-.119-.12-1.017-3.664-.953-3.764.028-.044.68-.463 1.447-.93l1.397-.85.741 2.324.752-1.898s-.093-.468-.291-.887c-.257-.542-1.056-.854-1.63-.638zm12.045 5.271c-.868.342-1.48 1.222-1.53 2.201-.099 1.925 1.917 3.24 3.622 2.363.876-.45 1.359-1.246 1.36-2.242.001-.98-.503-1.811-1.364-2.249-.539-.273-1.494-.307-2.088-.073zm-25.685.84c-.683.348-.948.585-.948.847 0 .184.284.526.481.578.208.054 1.879-.755 1.952-.945.164-.427-.102-.846-.533-.84-.141.003-.57.164-.952.36zm27.355.38c.3.199.633.779.633 1.102 0 .285-.318.882-.567 1.063-.425.31-1.132.3-1.57-.02-.714-.521-.646-1.708.122-2.154.406-.236 1.02-.232 1.382.008zm-21.691.701c-.277.307-.192.604.325 1.127.386.39.52.477.735.477a.56.56 0 00.584-.575c0-.202-.095-.348-.468-.722-.393-.392-.514-.468-.75-.468-.18 0-.333.058-.426.161zm14.148 0c-.299.299-.213.613.308 1.135.393.393.513.469.75.469.343 0 .572-.226.572-.567 0-.366-.838-1.198-1.206-1.198a.638.638 0 00-.424.16zm-5.01 4.704c-.811.41-.921.514-.921.874 0 .263.162.463.445.55.17.051 1.538-.56 1.82-.813.21-.189.187-.7-.039-.859-.276-.193-.525-.146-1.304.248zm14.643-.187c-.279.297-.225.57.204 1.028.493.527.736.654 1.046.546.23-.08.42-.355.42-.607 0-.068-.223-.355-.494-.638-.562-.586-.857-.668-1.176-.329zm-23.726.117c-.183.092-.546.52-1.17 1.38-.498.685-.946 1.324-.997 1.42-.209.399-.07 1.087.285 1.408.256.232 2.658 1.039 3.099 1.041.598.003.668-.065 2.067-2.008.552-.767.66-.969.69-1.29.04-.419-.08-.732-.394-1.025-.224-.21-2.707-1.07-3.065-1.063a1.462 1.462 0 00-.515.137zm1.75 1.464c.55.19 1.014.357 1.03.368.041.031-1.511 2.152-1.598 2.184-.082.03-2.082-.616-2.179-.703-.033-.03.097-.27.288-.531l.808-1.106c.252-.345.501-.612.553-.594.053.02.546.19 1.097.382zm14.612-.165c-.375.229-.49.525-.583 1.498-.16 1.7-.094 2.172.349 2.462.394.259 2.656 1.116 2.949 1.117.368.002.778-.232.964-.55.163-.28.366-2.454.273-2.925l-.612-.517h-.53c0 .178-.022.907-.074 1.705-.03.475-.078.904-.105.955-.034.062-.377-.038-1.08-.318l-1.031-.41.057-.925c.031-.51.07-.948.087-.976.016-.027.137-.071.268-.097.334.03.615.048.845.06.518.026.775.015.775.015l.258-.01h.53l.612.518.02-.74-.02-.522s-.162-.324-.461-.36c-1.014-.127-3.269-.116-3.491.02zm-6.807 3.662c-.998.355-1.589 1.488-1.355 2.601.224 1.071 1.47 1.855 2.56 1.61a2.204 2.204 0 001.563-3.055c-.436-1.013-1.692-1.537-2.768-1.156zm1.276 1.223c.124.082.28.227.346.322.163.232.16.765-.004 1.017-.172.262-.59.517-.847.517-.258 0-.675-.255-.847-.517-.165-.252-.167-.785-.004-1.017.191-.274.546-.47.85-.47.155 0 .383.067.506.148zm3.917 2.684c-.316.337-.236.612.34 1.165.283.272.57.495.638.495.252 0 .526-.19.606-.42.108-.31-.018-.554-.545-1.047-.466-.437-.759-.49-1.039-.193z" fill="url(#paint0_linear)"/><defs><linearGradient id="paint0_linear" x1="42.504" y1="20.425" x2="-.033" y2="21.155" gradientUnits="userSpaceOnUse"><stop stop-color="#0042DF"/><stop offset=".453" stop-color="#0076E3"/><stop offset="1" stop-color="#009FE3"/></linearGradient></defs></svg>