<svg width="23" height="23" viewBox="0 0 23 23" fill="none" xmlns="http://www.w3.org/2000/svg">
<path d="M11.5 23C17.8513 23 23 17.8513 23 11.5C23 5.14873 17.8513 0 11.5 0C5.14873 0 0 5.14873 0 11.5C0 17.8513 5.14873 23 11.5 23Z" fill="#039BE5"/>
<path d="M5.26283 11.2513L16.3507 6.97615C16.8654 6.79023 17.3148 7.10169 17.1481 7.87986L17.149 7.8789L15.2611 16.7732C15.1212 17.4038 14.7465 17.5571 14.2223 17.26L11.3473 15.1412L9.96058 16.4771C9.80724 16.6304 9.67787 16.7598 9.38078 16.7598L9.58491 13.834L14.9132 9.02028C15.1452 8.81615 14.8615 8.70115 14.5558 8.90432L7.97108 13.0501L5.13249 12.1646C4.51628 11.9691 4.50287 11.5484 5.26283 11.2513V11.2513Z" fill="white"/>
</svg>
