<svg width="23" height="23" viewBox="0 0 23 23" fill="none" xmlns="http://www.w3.org/2000/svg">
<path d="M11.5 23C17.8513 23 23 17.8513 23 11.5C23 5.14873 17.8513 0 11.5 0C5.14873 0 0 5.14873 0 11.5C0 17.8513 5.14873 23 11.5 23Z" fill="#7F4DA0"/>
<path d="M15.246 18.1035C14.9914 18.0262 14.7489 17.9743 14.5235 17.881C12.1892 16.9125 10.041 15.6631 8.33944 13.7479C7.37176 12.6589 6.61436 11.4293 5.97417 10.1281C5.67054 9.51101 5.41469 8.86983 5.15386 8.23267C4.91608 7.65174 5.26634 7.05159 5.63512 6.61376C5.9812 6.20289 6.42659 5.88858 6.90892 5.65676C7.28535 5.47593 7.65662 5.58023 7.93159 5.89926C8.52587 6.58911 9.07191 7.3142 9.51384 8.11386C9.7857 8.60571 9.71113 9.20693 9.21839 9.54162C9.09861 9.62296 8.98951 9.71853 8.878 9.81037C8.78012 9.89091 8.6881 9.97224 8.621 10.0813C8.49846 10.2807 8.49259 10.5161 8.57143 10.7329C9.17897 12.4025 10.203 13.7008 11.8836 14.4002C12.1525 14.5121 12.4225 14.6423 12.7323 14.6062C13.2512 14.5456 13.4192 13.9764 13.7828 13.6791C14.1381 13.3886 14.5923 13.3847 14.9751 13.627C15.358 13.8694 15.7291 14.1294 16.098 14.3924C16.4602 14.6505 16.8207 14.9027 17.1547 15.197C17.476 15.4799 17.5866 15.851 17.4057 16.2348C17.0746 16.9379 16.5927 17.5227 15.8978 17.8961C15.7016 18.0013 15.4672 18.0354 15.246 18.1035C15.4672 18.0354 14.9914 18.0262 15.246 18.1035Z" fill="white"/>
<path d="M11.6508 4.85277C14.704 4.93838 17.2118 6.96459 17.7492 9.98313C17.8408 10.4975 17.8734 11.0232 17.9141 11.5453C17.9313 11.7649 17.8069 11.9735 17.57 11.9764C17.3253 11.9793 17.2152 11.7745 17.1992 11.5551C17.1678 11.1207 17.146 10.6842 17.0861 10.2535C16.7701 7.97899 14.9565 6.09729 12.6925 5.69355C12.3518 5.63277 12.0033 5.61684 11.6581 5.58062C11.44 5.55775 11.1543 5.54458 11.106 5.27334C11.0655 5.04597 11.2574 4.86496 11.4739 4.8533C11.5326 4.84983 11.5917 4.85259 11.6508 4.85277C11.5917 4.85259 14.7042 4.93838 11.6508 4.85277Z" fill="white"/>
<path d="M16.2908 10.8676C16.2857 10.9058 16.2831 10.9954 16.2607 11.0798C16.1797 11.3862 15.7148 11.4246 15.6079 11.1154C15.5762 11.0236 15.5715 10.9191 15.5713 10.8204C15.5702 10.1738 15.4297 9.52768 15.1035 8.965C14.7683 8.38665 14.2561 7.90068 13.6555 7.60639C13.2922 7.42858 12.8995 7.31797 12.5014 7.25221C12.3274 7.22337 12.1516 7.20602 11.9767 7.18164C11.7648 7.15218 11.6516 7.01718 11.6618 6.80841C11.6711 6.61281 11.8141 6.47194 12.0273 6.48413C12.728 6.52382 13.4048 6.67546 14.0278 7.00526C15.2945 7.67616 16.0182 8.73496 16.2295 10.1489C16.239 10.2131 16.2543 10.2764 16.2592 10.3407C16.2711 10.4993 16.2787 10.6581 16.2908 10.8676C16.2787 10.6581 16.2857 10.9056 16.2908 10.8676Z" fill="white"/>
<path d="M14.3927 10.794C14.1373 10.7986 14.0006 10.6571 13.9742 10.4231C13.9559 10.2599 13.9413 10.0944 13.9023 9.93542C13.8256 9.62244 13.6593 9.33251 13.3961 9.14074C13.2719 9.05024 13.131 8.98429 12.9835 8.94158C12.7962 8.88738 12.6015 8.90233 12.4147 8.85659C12.2117 8.80685 12.0994 8.64239 12.1314 8.45204C12.1604 8.27869 12.3289 8.14343 12.5184 8.15722C13.7021 8.24265 14.5481 8.85463 14.6689 10.2482C14.6775 10.3466 14.6875 10.4504 14.6657 10.5446C14.6281 10.7055 14.5089 10.7862 14.3927 10.794C14.5089 10.7862 14.1372 10.7985 14.3927 10.794Z" fill="white"/>
<path d="M13.3173 14.1203C13.429 14.0859 13.1888 14.0813 13.3173 14.1203V14.1203Z" fill="white"/>
<path d="M11.5029 7.43164C11.5042 7.43164 11.5055 7.43178 11.5068 7.43178C11.5923 7.43483 12.9835 7.47315 11.5029 7.43164Z" fill="white"/>
<path d="M13.8461 10.4678C13.84 10.3621 13.8436 10.487 13.8461 10.4678V10.4678Z" fill="white"/>
<path d="M12.8876 10.4301C12.8896 10.43 12.8915 10.4289 12.8935 10.4287C12.888 10.4287 12.8797 10.4288 12.8711 10.4292C12.8767 10.4293 12.8817 10.4302 12.8876 10.4301Z" fill="white"/>
<path d="M12.8871 10.4306C12.8813 10.4307 12.8762 10.4299 12.8706 10.4297C12.8427 10.4305 12.8139 10.4319 12.8871 10.4306Z" fill="white"/>
<path d="M12.8926 10.4287C12.8906 10.4289 12.8886 10.43 12.8867 10.4301C12.9018 10.4291 12.9005 10.4287 12.8926 10.4287Z" fill="white"/>
</svg>
