<svg width="75" height="101" fill="none" xmlns="http://www.w3.org/2000/svg"><path d="M39.588 48.406c.966 6.759 0 11.587-7.241 11.587-5.31 0-13.035-9.656-14.966-18.345-1.545-7.049 2.897-10.62 6.759-10.62 7.241 0 14.483 10.234 15.448 17.378z" stroke="url(#paint0_linear)" stroke-miterlimit="10"/><path d="M7.824 11.428c.483-.29 1.062-.58 1.545-.87a15.357 15.357 0 013.186-.868c14.483-1.931 28 11.586 28 11.586s10.62 6.759 16.414 24.138c5.793 17.38-1.931 30.897-4.828 33.793-2.413 2.414-17.862 15.159-22.69 19.117" stroke="url(#paint1_linear)" stroke-miterlimit="10"/><path d="M9.464 10.559C13.616 7.566 23.754 1 31.961 1c10.62 0 15.834 3.572 22.207 8.69 9.655 7.724 13.227 17.476 15.448 23.172 6.759 17.38 4.828 30.897-1.93 37.655-3.38 3.38-36.498 26.359-38.139 27.517l-.965.966S3.96 46.862 2.706 40.2c-1.062-5.697-5.02-21.338 4.634-28.097.53-.37 1.408-1.028 2.124-1.544z" stroke="url(#paint2_linear)" stroke-width="2" stroke-miterlimit="10"/><defs><linearGradient id="paint0_linear" x1="40.739" y1="45.457" x2="17.046" y2="45.778" gradientUnits="userSpaceOnUse"><stop stop-color="#0042DF"/><stop offset=".453" stop-color="#0076E3"/><stop offset="1" stop-color="#009FE3"/></linearGradient><linearGradient id="paint1_linear" x1="60.948" y1="53.75" x2="7.773" y2="54.277" gradientUnits="userSpaceOnUse"><stop stop-color="#0042DF"/><stop offset=".453" stop-color="#0076E3"/><stop offset="1" stop-color="#009FE3"/></linearGradient><linearGradient id="paint2_linear" x1="76.493" y1="49.821" x2=".932" y2="50.785" gradientUnits="userSpaceOnUse"><stop stop-color="#0042DF"/><stop offset=".453" stop-color="#0076E3"/><stop offset="1" stop-color="#009FE3"/></linearGradient></defs></svg>