<svg width="85" height="100" fill="none" xmlns="http://www.w3.org/2000/svg"><path d="M83.587 85.39V44.788s1.795-6.568-5.387-11.344C71.018 28.668 25.53 2.397 25.53 2.397S21.94.01 14.759 3.591C7.575 7.174 3.984 8.368 2.788 10.756 1.59 13.144 1.59 11.95 1.59 21.503V54.94S.393 64.493 8.773 69.27l50.275 28.658s2.992 2.986 11.97-2.388c10.534-6.329 10.773-5.97 10.773-5.97s2.394-1.195 1.796-4.18z" stroke="url(#paint0_linear)" stroke-width="2" stroke-miterlimit="10"/><path d="M5.182 8.368S50.669 34.64 59.646 40.013c8.978 5.373 8.978 2.985 8.38 16.718-.48 10.747 0 40.361 0 40.361" stroke="url(#paint1_linear)" stroke-miterlimit="10"/><path d="M57.851 44.192l-45.487-26.27S6.38 14.338 6.38 20.31v32.24s-1.197 3.582 4.788 7.165c5.985 3.582 46.684 26.27 46.684 26.27s5.985 2.389 5.985-2.388V50.163s0-2.388-5.985-5.97z" stroke="url(#paint2_linear)" stroke-miterlimit="10"/><path d="M22.419 77.031s-6.464 28.062 34.234 19.703" stroke="url(#paint3_linear)" stroke-width="2" stroke-miterlimit="10"/><path d="M24.095 77.867s-2.275 21.972 28.37 16.12" stroke="url(#paint4_linear)" stroke-miterlimit="10"/><path d="M37.177 80.339c.661-1.142.037-2.737-1.395-3.561-1.43-.825-3.127-.567-3.788.575-.661 1.143-.037 2.737 1.394 3.561 1.432.825 3.128.567 3.789-.575z" stroke="url(#paint5_linear)" stroke-miterlimit="10"/><defs><linearGradient id="paint0_linear" x1="86.803" y1="50.008" x2="1.459" y2="51.249" gradientUnits="userSpaceOnUse"><stop stop-color="#0042DF"/><stop offset=".453" stop-color="#0076E3"/><stop offset="1" stop-color="#009FE3"/></linearGradient><linearGradient id="paint1_linear" x1="70.559" y1="52.568" x2="5.122" y2="53.367" gradientUnits="userSpaceOnUse"><stop stop-color="#0042DF"/><stop offset=".453" stop-color="#0076E3"/><stop offset="1" stop-color="#009FE3"/></linearGradient><linearGradient id="paint2_linear" x1="65.947" y1="51.592" x2="6.23" y2="52.438" gradientUnits="userSpaceOnUse"><stop stop-color="#0042DF"/><stop offset=".453" stop-color="#0076E3"/><stop offset="1" stop-color="#009FE3"/></linearGradient><linearGradient id="paint3_linear" x1="57.923" y1="87.621" x2="22.033" y2="88.625" gradientUnits="userSpaceOnUse"><stop stop-color="#0042DF"/><stop offset=".453" stop-color="#0076E3"/><stop offset="1" stop-color="#009FE3"/></linearGradient><linearGradient id="paint4_linear" x1="53.506" y1="86.391" x2="24.049" y2="87.231" gradientUnits="userSpaceOnUse"><stop stop-color="#0042DF"/><stop offset=".453" stop-color="#0076E3"/><stop offset="1" stop-color="#009FE3"/></linearGradient><linearGradient id="paint5_linear" x1="35.861" y1="76.621" x2="33.445" y2="80.952" gradientUnits="userSpaceOnUse"><stop stop-color="#0042DF"/><stop offset=".453" stop-color="#0076E3"/><stop offset="1" stop-color="#009FE3"/></linearGradient></defs></svg>