<svg width="98" height="98" fill="none" xmlns="http://www.w3.org/2000/svg"><path d="M38.505 93.038s2.484 3.722 7.452 3.722h6.21s4.969 0 9.937-7.443c4.968-7.443 33.536-48.38 33.536-48.38s2.484-1.24 0-6.203l-7.452-14.886L69.556 2.481 29.81 1.241 9.937 19.848 1.242 37.215s0 .62 1.242 2.977c.497 1.117 1.367 2.481 2.484 4.466 3.727 6.203 33.536 48.38 33.536 48.38z" stroke="url(#paint0_linear)" stroke-width="2" stroke-miterlimit="10"/><path d="M96.633 39.324L70.798 63.266H26.082L1.986 39.324" stroke="url(#paint1_linear)" stroke-miterlimit="10"/><path d="M88.684 20.965L67.072 40.937l-37.263-1.24L9.44 20.963" stroke="url(#paint2_linear)" stroke-miterlimit="10"/><path d="M67.073 40.937l4.968 22.329L53.658 96.51" stroke="url(#paint3_linear)" stroke-miterlimit="10"/><path d="M44.467 96.76L26.084 63.265l3.726-23.57" stroke="url(#paint4_linear)" stroke-miterlimit="10"/><defs><linearGradient id="paint0_linear" x1="100.247" y1="48.825" x2="1.166" y2="50.527" gradientUnits="userSpaceOnUse"><stop stop-color="#0042DF"/><stop offset=".453" stop-color="#0076E3"/><stop offset="1" stop-color="#009FE3"/></linearGradient><linearGradient id="paint1_linear" x1="100.104" y1="51.251" x2="2.333" y2="57.889" gradientUnits="userSpaceOnUse"><stop stop-color="#0042DF"/><stop offset=".453" stop-color="#0076E3"/><stop offset="1" stop-color="#009FE3"/></linearGradient><linearGradient id="paint2_linear" x1="91.591" y1="30.914" x2="9.732" y2="36.492" gradientUnits="userSpaceOnUse"><stop stop-color="#0042DF"/><stop offset=".453" stop-color="#0076E3"/><stop offset="1" stop-color="#009FE3"/></linearGradient><linearGradient id="paint3_linear" x1="72.715" y1="68.622" x2="53.639" y2="68.731" gradientUnits="userSpaceOnUse"><stop stop-color="#0042DF"/><stop offset=".453" stop-color="#0076E3"/><stop offset="1" stop-color="#009FE3"/></linearGradient><linearGradient id="paint4_linear" x1="45.141" y1="68.123" x2="26.064" y2="68.229" gradientUnits="userSpaceOnUse"><stop stop-color="#0042DF"/><stop offset=".453" stop-color="#0076E3"/><stop offset="1" stop-color="#009FE3"/></linearGradient></defs></svg>