<svg width="22" height="25" fill="none" xmlns="http://www.w3.org/2000/svg"><path d="M15.281 10.28a6.005 6.005 0 001.767-4.229c0-3.286-2.721-6.036-6.12-6.036-3.333 0-6.12 2.683-6.12 6.036 0 1.677.677 3.155 1.766 4.228C2.63 11.956.043 15.787.043 20.081c0 1.677.41 2.957 1.29 3.692 1.431 1.346 3.809 1.205 6.597 1.073.955-.066 1.976-.132 2.998-.132 1.021 0 2.043.066 2.997.132.82.066 4.831.67 6.598-1.073.82-.81 1.29-2.015 1.29-3.692.008-4.368-2.58-8.125-6.531-9.802zM6.24 6.05c0-2.552 2.11-4.699 4.764-4.699 2.587 0 4.764 2.081 4.764 4.7 0 2.55-2.11 4.698-4.764 4.698C8.35 10.683 6.24 8.602 6.24 6.05zm13.405 16.78c-1.022.942-3.132.81-5.577.67a43.703 43.703 0 00-3.064-.133c-1.088 0-2.11.066-3.064.132-2.454.132-4.564.273-5.577-.669-.544-.537-.82-1.412-.82-2.75 0-4.03 2.587-7.58 6.397-8.86.887.536 1.976.809 3.064.809s2.177-.339 3.064-.81c3.877 1.272 6.397 4.832 6.397 8.861-.008 1.338-.276 2.213-.82 2.75z" fill="#fff"/></svg>