<svg width="38" height="26" fill="none" xmlns="http://www.w3.org/2000/svg"><path d="M32.865 11.553a4.335 4.335 0 00-2.489-7.887 4.335 4.335 0 00-2.489 7.887 7.518 7.518 0 00-2.564 1.503 9.728 9.728 0 00-3.518-1.917 5.508 5.508 0 002.654-4.707A5.494 5.494 0 0018.962.936a5.498 5.498 0 00-2.842 10.203 9.809 9.809 0 00-3.48 1.895 7.578 7.578 0 00-2.535-1.474 4.335 4.335 0 00-2.489-7.887 4.335 4.335 0 00-2.488 7.887A7.615 7.615 0 000 18.756v.496c0 .015.015.03.03.03h9.196c-.053.413-.083.842-.083 1.27v.512c0 2.21 1.79 4 4 4h11.654c2.21 0 4-1.79 4-4v-.511c0-.429-.03-.858-.083-1.271h9.256c.015 0 .03-.015.03-.03v-.496a7.644 7.644 0 00-5.135-7.203zM27.24 7.996a3.138 3.138 0 013.135-3.135 3.138 3.138 0 013.135 3.135 3.146 3.146 0 01-3.075 3.136h-.12a3.13 3.13 0 01-3.075-3.136zM14.654 6.432a4.297 4.297 0 014.293-4.293 4.297 4.297 0 014.294 4.293 4.3 4.3 0 01-4.046 4.286H18.7a4.3 4.3 0 01-4.045-4.286zM4.46 7.996a3.138 3.138 0 013.135-3.135 3.138 3.138 0 013.135 3.135 3.146 3.146 0 01-3.075 3.136h-.12A3.136 3.136 0 014.46 7.996zm4.977 10.075H1.218c.338-3.203 3.045-5.714 6.33-5.737h.091a6.358 6.358 0 014.098 1.527 9.873 9.873 0 00-2.3 4.21zm18.143 2.993a2.801 2.801 0 01-2.797 2.797H13.128a2.801 2.801 0 01-2.797-2.797v-.511c0-4.67 3.73-8.49 8.368-8.625.083.008.173.008.256.008.083 0 .173 0 .256-.008 4.639.136 8.368 3.955 8.368 8.625v.51zm.895-2.993a9.846 9.846 0 00-2.279-4.18 6.389 6.389 0 014.136-1.556h.09c3.286.022 5.992 2.533 6.33 5.736h-8.277z" fill="#fff"/></svg>