<svg width="34" height="23" fill="none" xmlns="http://www.w3.org/2000/svg"><path d="M30.978 9.899a7.754 7.754 0 00-5.197-2.287 6.92 6.92 0 01-.016-.519c0-.94.723-3.811 1.18-5.4L27.41.067h-5.66l-.38.604c-.15.24-3.685 5.965-3.685 14.598 0 4.226 3.48 7.665 7.758 7.665 4.278 0 7.758-3.439 7.758-7.665a7.574 7.574 0 00-2.222-5.37zm-5.536 10.48c-2.852 0-5.172-2.293-5.172-5.11 0-6.344 2.123-11.04 2.962-12.647h.784c-.372 1.442-.837 3.452-.837 4.471 0 .809.06 1.459.358 2.001.264.483.817 1.059 1.951 1.065l.056.001c2.796.054 5.07 2.345 5.07 5.109 0 2.817-2.32 5.11-5.172 5.11z" fill="url(#paint0_linear)"/><path d="M13.83 9.899a7.754 7.754 0 00-5.197-2.287 6.91 6.91 0 01-.016-.519c0-.94.723-3.811 1.18-5.4l.466-1.626H4.6L4.22.67C4.07.91.536 6.636.536 15.269c0 4.226 3.48 7.665 7.758 7.665 4.278 0 7.759-3.439 7.759-7.665 0-2.021-.79-3.928-2.223-5.37zm-5.537 10.48c-2.851 0-5.172-2.293-5.172-5.11 0-6.344 2.123-11.04 2.962-12.647h.784c-.371 1.442-.836 3.452-.836 4.471 0 .809.06 1.459.357 2.001.265.483.818 1.059 1.952 1.065l.056.001c2.795.054 5.07 2.345 5.07 5.109 0 2.817-2.32 5.11-5.173 5.11z" fill="url(#paint1_linear)"/><defs><linearGradient id="paint0_linear" x1="33.769" y1="11.458" x2="17.669" y2="11.646" gradientUnits="userSpaceOnUse"><stop stop-color="#0042DF"/><stop offset=".453" stop-color="#0076E3"/><stop offset="1" stop-color="#009FE3"/></linearGradient><linearGradient id="paint1_linear" x1="16.621" y1="11.458" x2=".52" y2="11.646" gradientUnits="userSpaceOnUse"><stop stop-color="#0042DF"/><stop offset=".453" stop-color="#0076E3"/><stop offset="1" stop-color="#009FE3"/></linearGradient></defs></svg>