<svg width="136" height="20" viewBox="0 0 136 20" fill="none" xmlns="http://www.w3.org/2000/svg">
<g clip-path="url(#clip0)">
<path d="M32.8869 19.2V5.54999H40.7457C45.0005 5.54999 46.5522 8.19999 46.5522 10.45C46.5522 12.85 44.8003 15.25 40.8458 15.25H37.9926V19.2H32.8869ZM37.9426 12.15H38.9938C40.5955 12.15 41.3964 11.55 41.3964 10.4C41.3964 9.59999 40.996 8.64999 38.9938 8.64999H37.9926V12.15H37.9426Z" fill="#003D6A"/>
<path d="M56.0629 19.2L55.1619 16.25H51.0573L50.1563 19.2H45.1006L49.8059 5.54999H56.7136L61.4689 19.2H56.0629ZM51.6079 13.1H54.6113L53.1596 8.69999H53.0595L51.6079 13.1Z" fill="#003D6A"/>
<path d="M3.85432 19.2L5.356 16.25L0 5.54999H5.30595L8.00898 10.95L10.7621 5.54999H16.068L9.16027 19.2H3.85432Z" fill="#003D6A"/>
<path d="M79.1387 19.2V14.15H75.6348V19.2H70.5291V5.54999H75.6348V10.3H79.1387V5.54999H84.2444V19.2H79.1387Z" fill="#003D6A"/>
<path d="M96.7585 19.2L95.8575 16.25H91.7529L90.8519 19.2H85.7962L90.5015 5.54999H97.4092L102.165 19.2H96.7585ZM92.3035 13.1H95.3069L93.8552 8.69999H93.7051L92.3035 13.1Z" fill="#003D6A"/>
<path d="M25.6788 19.2L22.5253 13.75V19.2H17.4196V5.54999H22.5253V10.95L25.7289 5.54999H31.3852L27.2806 12.3L31.3852 19.2H25.6788Z" fill="#003D6A"/>
<path d="M64.272 4.04998C64.9728 4.89998 64.8727 6.14998 64.0218 6.84998C63.1708 7.54998 61.9194 7.44999 61.2186 6.59998C60.5178 5.74998 60.618 4.49998 61.4689 3.79998C62.3199 3.09998 63.5713 3.19998 64.272 4.04998Z" fill="#FFB41D"/>
<path d="M67.3255 1.49999C68.0263 2.34999 67.9262 3.59999 67.0752 4.29999C66.2242 4.99999 64.9728 4.89999 64.272 4.04999C63.5712 3.19999 63.6714 1.94999 64.5223 1.24999C65.3733 0.549993 66.6247 0.699993 67.3255 1.49999Z" fill="#FFB41D"/>
<path d="M62.6703 19.2V9.8L67.776 5.5V19.2H62.6703Z" fill="#003D6A"/>
<path d="M120.035 15.35V19.15H106.419V18.9C106.419 18.2 106.519 17.55 106.72 16.95C106.92 16.35 107.17 15.8 107.571 15.3C107.971 14.8 108.371 14.35 108.772 14C109.222 13.6 109.723 13.2 110.324 12.8C110.824 12.45 111.375 12.1 111.976 11.7C112.576 11.35 113.027 11.05 113.377 10.9C113.727 10.7 114.028 10.5 114.328 10.25C114.628 9.99999 114.829 9.79999 114.979 9.54999C115.129 9.29999 115.179 9.04999 115.179 8.69999C115.179 8.19999 114.979 7.84999 114.628 7.54999C114.278 7.24999 113.828 7.14999 113.277 7.14999C112.426 7.14999 111.825 7.39999 111.475 7.89999C111.175 8.39999 110.974 9.09999 110.924 10.05H106.67V9.79999C106.67 7.64999 107.22 6.04999 108.371 4.94999C109.523 3.84999 111.225 3.29999 113.427 3.29999C115.329 3.29999 116.831 3.74999 117.982 4.64999C119.134 5.54999 119.684 6.74999 119.684 8.29999C119.684 8.94999 119.584 9.49999 119.434 9.99999C119.284 10.5 118.983 10.95 118.633 11.35C118.233 11.75 117.882 12.1 117.582 12.35C117.281 12.6 116.781 12.95 116.18 13.3C115.88 13.5 115.279 13.85 114.428 14.35C113.577 14.85 112.927 15.25 112.526 15.55C113.878 15.4 115.029 15.35 116.03 15.35H120.035Z" fill="#FFB41D"/>
<path d="M135.152 12.05V15.75H133.099V19.15H128.494V15.75H121.586V11.65L128.644 3.54999H133.149V12.1H135.152V12.05ZM128.644 12.1V9.09999L128.694 7.64999L124.94 12.15C125.641 12.1 126.091 12.1 126.342 12.1H128.644Z" fill="#FFB41D"/>
</g>
<defs>
<clipPath id="clip0">
<rect width="135.152" height="20" fill="white"/>
</clipPath>
</defs>
</svg>
